<svg width="97" height="98" viewBox="0 0 97 98" fill="none" xmlns="http://www.w3.org/2000/svg">
<path d="M62.2511 88.5098L62.4011 83.5098H50.5011L50.3511 88.5098H62.2011H62.2511Z" fill="#4C4EAA"/>
<path d="M67.9511 94.5098L62.2011 88.5098H50.3511L50.1011 94.5098H67.9511Z" fill="white"/>
<path d="M67.851 97.5098L67.951 94.5098H50.101L49.951 97.5098H67.851Z" fill="#EEA160"/>
<path d="M62.851 74.3098C62.851 72.7098 62.2177 71.3431 60.951 70.2098C59.7177 69.0765 58.201 68.5098 56.401 68.5098C54.6344 68.5098 53.1177 69.0765 51.851 70.2098C50.5844 71.3431 49.951 72.7098 49.951 74.3098L50.501 83.5098H62.401L62.851 74.3098Z" fill="#676AC6"/>
<path d="M35.651 88.5098L35.501 83.5098H47.401L47.551 88.5098H35.701H35.651Z" fill="#4C4EAA"/>
<path d="M29.951 94.5098L35.701 88.5098H47.551L47.801 94.5098H29.951Z" fill="white"/>
<path d="M30.0511 97.5098L29.951 94.5098H47.801L47.951 97.5098H30.0511Z" fill="#EEA160"/>
<path d="M35.0511 74.3098C35.0511 72.7098 35.6844 71.3431 36.951 70.2098C38.1844 69.0765 39.7011 68.5098 41.501 68.5098C43.2677 68.5098 44.7844 69.0765 46.051 70.2098C47.3177 71.3431 47.951 72.7098 47.951 74.3098L47.401 83.5098H35.501L35.0511 74.3098Z" fill="#676AC6"/>
<path d="M71.0363 70.805C69.0303 69.4048 67.1492 67.7964 65.3929 65.98C67.2285 62.6069 70.109 59.8415 74.0344 57.6841C74.7571 58.4644 75.5131 59.1846 76.3025 59.8447C78.0956 61.3949 80.149 62.6181 82.4626 63.5141C83.9649 64.0892 85.0512 65.1222 85.7214 66.6131C86.3509 68.1276 86.3898 69.6565 85.8383 71.1996C85.231 72.6933 84.1658 73.771 82.6427 74.4326C81.1839 75.1115 79.6712 75.1548 78.1045 74.5624C76.2975 73.8367 74.6054 73.0037 73.0284 72.0635C72.3396 71.6719 71.6756 71.2524 71.0363 70.805Z" fill="#BF7958"/>
<path d="M59.4233 53.8725C59.8782 52.3035 60.8201 51.1065 62.2489 50.2815C63.7014 49.4974 65.1917 49.3446 66.7199 49.8231C68.2975 50.2459 69.487 51.1512 70.2884 52.5393C71.3554 54.4816 72.604 56.1965 74.0344 57.6841C70.1089 59.8415 67.2284 62.6069 65.3928 65.98C63.3364 63.738 61.5155 61.1968 59.93 58.3564C59.2016 56.9534 59.0327 55.4588 59.4233 53.8725Z" fill="#E7F3FC"/>
<path d="M65.6281 68.5794L62.6814 65.6675L73.2645 55.1484L76.1758 57.9991L65.6281 68.5794Z" fill="#BFD4E5"/>
<path d="M24.1014 68.5094C26.4013 67.6761 28.6346 66.6094 30.8012 65.3095C29.9012 61.5762 27.8346 58.1597 24.6014 55.0598C23.7014 55.6264 22.7848 56.1264 21.8515 56.5597C19.7182 57.593 17.4183 58.243 14.9517 58.5097C13.3517 58.6763 12.0351 59.393 11.0018 60.6596C10.0018 61.9596 9.56852 63.4262 9.70185 65.0595C9.90185 66.6594 10.6518 67.9761 11.9518 69.0094C13.1851 70.0427 14.635 70.476 16.3017 70.3093C18.2349 70.076 20.0849 69.7093 21.8515 69.2093C22.6181 69.0094 23.3681 68.776 24.1014 68.5094Z" fill="#BF7958"/>
<path d="M39.7009 55.1598C39.6676 53.5265 39.0676 52.1265 37.901 50.9599C36.701 49.8266 35.3011 49.2933 33.7011 49.36C32.0678 49.36 30.6845 49.9266 29.5512 51.0599C28.018 52.6599 26.368 53.9931 24.6014 55.0598C27.8346 58.1597 29.9012 61.5762 30.8012 65.3095C33.3678 63.6762 35.7844 61.6929 38.051 59.3597C39.1176 58.193 39.6676 56.7931 39.7009 55.1598Z" fill="#E7F3FC"/>
<path d="M29.9012 67.7594L33.5011 65.7095L26.0013 52.8099L22.4514 54.8098L29.9012 67.7594Z" fill="#BFD4E5"/>
<path d="M63.551 74.4098V69.4598H33.501V74.4098H63.551Z" fill="#BFD4E5"/>
<path d="M62.051 79.6098C62.9844 78.3431 63.4844 76.6098 63.551 74.4098H33.501C33.5677 76.6098 34.0677 78.3431 35.001 79.6098H62.051Z" fill="#676AC6"/>
<path d="M66.7511 55.8098C67.4511 52.2098 66.5844 50.4764 64.1511 50.6098H32.8511C30.4177 50.4764 29.5511 52.2098 30.2511 55.8098L33.5011 69.4598H63.5511L66.7511 55.8098Z" fill="#E7F3FC"/>
<path d="M56.5511 43.1598C54.4511 41.4598 51.9344 40.6098 49.0011 40.6098C46.0677 40.6098 43.5511 41.4598 41.4511 43.1598C39.3844 44.9598 38.3511 47.1098 38.3511 49.6098C38.3511 49.7764 38.3677 49.9431 38.4011 50.1098C38.5011 52.3764 39.5177 54.3098 41.4511 55.9098C43.5511 57.7098 46.0677 58.6098 49.0011 58.6098C51.9344 58.6098 54.4511 57.7098 56.5511 55.9098C58.4844 54.3098 59.5011 52.3764 59.6011 50.1098C59.6344 49.9431 59.6511 49.7764 59.6511 49.6098C59.6511 47.1098 58.6177 44.9598 56.5511 43.1598Z" fill="#A8603F"/>
<path d="M45.8011 69.6598L31.701 70.9098C31.9677 72.5431 32.2511 74.2764 32.5511 76.1098L45.001 74.6098C45.3344 73.0764 45.6011 71.4264 45.8011 69.6598Z" fill="#D78B49"/>
<path d="M45.8011 69.6598C46.0344 67.3264 46.1177 64.8098 46.0511 62.1098C41.5511 59.2764 37.9844 54.9764 35.3511 49.2098L30.8011 48.3598C29.4344 50.8264 29.7344 58.3431 31.7011 70.9098L45.8011 69.6598Z" fill="#EEA160"/>
<path d="M65.8011 70.9098L51.701 69.6598C51.901 71.4264 52.1677 73.0764 52.501 74.6098L64.951 76.1098C65.251 74.2764 65.5344 72.5431 65.8011 70.9098Z" fill="#D78B49"/>
<path d="M51.4511 62.1098C51.3844 64.8098 51.4677 67.3264 51.7011 69.6598L65.8011 70.9098C67.7677 58.3431 68.0677 50.8264 66.7011 48.3598L62.1511 49.2098C59.5177 54.9764 55.9511 59.2764 51.4511 62.1098Z" fill="#EEA160"/>
<path d="M35.9011 49.6098L33.8511 53.2098L46.9511 60.8098L49.0011 57.1598L35.9011 49.6098ZM62.1011 49.6098L49.0011 57.1598L51.0511 60.8098L64.1511 53.2098L62.1011 49.6098Z" fill="#BFD4E5"/>
<path d="M51.051 60.8098L49.001 57.1598L46.951 60.8098H51.051Z" fill="#E7F3FC"/>
<path d="M90.0951 62.7223L89.2367 62.3122C85.291 61.037 81.8498 60.9815 78.9134 62.1455C85.107 58.4348 88.856 58.618 90.1605 62.6952L90.0951 62.7223Z" fill="#A8603F"/>
<path d="M75.3458 74.144C74.5272 73.7685 74.303 73.1342 74.6732 72.2413L78.9134 62.1455C81.8498 60.9815 85.2909 61.037 89.2367 62.3122L90.0951 62.7223L90.1604 62.6952C91.1893 63.0858 92.267 63.5326 93.3935 64.0358L93.763 64.189C94.6252 64.5465 94.9049 65.4383 94.6023 66.8644C94.229 68.983 93.644 70.9597 92.8472 72.7944C90.646 78.0161 85.0893 78.5809 76.1771 74.4887L75.3458 74.144Z" fill="#BF7958"/>
<path d="M63.5958 42.1098C59.6766 39.5098 54.9284 38.2098 49.3511 38.2098C43.7737 38.2098 38.9752 39.5098 34.9555 42.1098C31.0363 44.7764 29.0767 47.9598 29.0767 51.6598C29.0767 55.3598 31.0363 58.5098 34.9555 61.1098C38.9752 63.7764 43.7737 65.1098 49.3511 65.1098C54.9284 65.1098 59.6766 63.7764 63.5958 61.1098C67.6155 58.5098 69.6254 55.3598 69.6254 51.6598C69.6254 47.9598 67.6155 44.7764 63.5958 42.1098Z" fill="url(#paint0_radial_2_4)"/>
<path d="M67.4467 10.4215L65.0963 5.56474C55.5185 3.66979 46.4289 2.90606 37.8276 3.27356C33.0158 3.38059 30.5999 5.37951 30.58 9.27033L30.5806 10.982C31.4853 8.70524 33.7545 7.52816 37.3882 7.4508C45.9856 7.11641 55.0732 7.89669 64.651 9.79164L67.4467 10.4215ZM77.3628 16.0143L77.6574 14.7903C78.5595 11.1036 77.0192 8.64081 73.0364 7.40189L68.0806 10.5965L72.5969 11.5791C75.382 12.4427 76.9706 13.9211 77.3628 16.0143Z" fill="#454A51"/>
<path d="M72.5969 11.5791L68.0806 10.5965L67.6484 10.8479L67.4467 10.4215L64.651 9.79163C55.0732 7.89669 45.9856 7.11641 37.3882 7.4508C33.7544 7.52816 31.4852 8.70524 30.5806 10.982L30.5561 30.512C30.5825 33.435 32.3007 35.0964 35.7107 35.4962L66.5991 39.118C70.0421 39.5217 72.0981 38.3028 72.7668 35.4614L77.3628 16.0143C76.9706 13.9211 75.3819 12.4427 72.5969 11.5791Z" fill="#3C3E41"/>
<path d="M27.6289 29.7157C25.8904 31.0893 24.8912 32.8851 24.6311 35.1033C24.371 37.3214 24.9277 39.2997 26.3013 41.0382C27.7002 42.8467 29.4756 43.8771 31.6275 44.1295C33.8126 44.3857 35.7947 43.7958 37.5741 42.3599C39.2794 40.9825 40.2621 39.1847 40.5222 36.9666C40.7823 34.7484 40.2421 32.7721 38.9017 31.0375C37.5027 29.229 35.7108 28.1966 33.5258 27.9404C31.3738 27.6881 29.4082 28.2799 27.6289 29.7157ZM28.8477 39.0713C28.0294 38.0356 27.6998 36.8391 27.859 35.4818C28.0104 34.1906 28.6078 33.1028 29.6512 32.2183C30.6869 31.4 31.8503 31.0665 33.1415 31.2179C34.4988 31.3771 35.5866 31.9745 36.4049 33.0102C37.2155 34.1121 37.545 35.3086 37.3936 36.5997C37.2345 37.9571 36.6371 39.0449 35.6014 39.8632C34.5618 40.7146 33.3634 41.0607 32.006 40.9016C30.7149 40.7502 29.6621 40.1401 28.8477 39.0713ZM64.3771 34.0246C62.6386 35.3981 61.6394 37.194 61.3793 39.4121C61.1192 41.6303 61.6759 43.6085 63.0495 45.347C64.4484 47.1555 66.2238 48.186 68.3757 48.4383C70.5608 48.6945 72.5429 48.1047 74.3223 46.6688C76.0276 45.2913 77.0103 43.4935 77.2704 41.2754C77.5305 39.0573 76.9903 37.0809 75.6499 35.3463C74.2509 33.5378 72.459 32.5054 70.274 32.2492C68.122 31.9969 66.1564 32.5887 64.3771 34.0246ZM66.3994 36.5271C67.4351 35.7088 68.5985 35.3754 69.8897 35.5268C71.2139 35.682 72.3017 36.2795 73.1531 37.319C73.9637 38.4209 74.2932 39.6174 74.1418 40.9086C73.9827 42.2659 73.3853 43.3538 72.3496 44.1721C71.2769 45.0196 70.0785 45.3657 68.7542 45.2104C67.4631 45.059 66.4103 44.4489 65.5959 43.3802C64.7445 42.3406 64.3984 41.1421 64.5575 39.7848C64.7089 38.4936 65.3229 37.4077 66.3994 36.5271Z" fill="#BF7958"/>
<path d="M27.859 35.4818C27.6998 36.8391 28.0294 38.0356 28.8477 39.0713C29.6621 40.1401 30.7149 40.7502 32.006 40.9016C33.3634 41.0607 34.5618 40.7146 35.6014 39.8632C36.6371 39.0449 37.2345 37.9571 37.3936 36.5997C37.545 35.3086 37.2155 34.1121 36.4049 33.0102C35.5866 31.9745 34.4988 31.3771 33.1414 31.2179C31.8503 31.0665 30.6869 31.4 29.6512 32.2183C28.6078 33.1028 28.0104 34.1906 27.859 35.4818ZM69.8896 35.5268C68.5985 35.3754 67.4351 35.7088 66.3994 36.5271C65.3229 37.4077 64.7089 38.4936 64.5575 39.7848C64.3983 41.1421 64.7445 42.3406 65.5959 43.3802C66.4103 44.4489 67.4631 45.059 68.7542 45.2104C70.0785 45.3657 71.2769 45.0196 72.3496 44.1721C73.3853 43.3538 73.9827 42.2659 74.1418 40.9086C74.2932 39.6174 73.9637 38.4209 73.1531 37.319C72.3017 36.2795 71.2139 35.682 69.8896 35.5268Z" fill="#A8603F"/>
<path d="M61.4898 53.0679C65.1196 53.0236 67.3643 51.3402 68.2237 48.0177L73.8835 22.5033L32.3183 17.6296L31.7932 49.5859L61.4898 53.0679Z" fill="#BF7958"/>
<path d="M38.8883 34.1572C38.7524 35.3159 39.0001 36.3518 39.6314 37.2649C40.3212 38.2519 41.262 38.8153 42.4538 38.955C43.5794 39.087 44.5754 38.7507 45.4416 37.9461C46.3001 37.2077 46.7973 36.2592 46.9332 35.1005C47.069 33.9417 46.8048 32.9039 46.1403 31.987C45.4798 31.0369 44.5868 30.4959 43.4611 30.3639C42.2693 30.2242 41.2256 30.5381 40.3302 31.3057C39.5048 32.048 39.0241 32.9984 38.8883 34.1572ZM41.3538 34.5973L41.3829 34.349C41.4975 33.6576 41.7992 33.0889 42.2878 32.6428C42.8134 32.1674 43.4072 31.9685 44.0694 32.0462C44.7646 32.1277 45.3129 32.4605 45.7143 33.0445C46.0864 33.5916 46.2483 34.2147 46.1999 34.9138L46.1708 35.1621C46.06 35.8203 45.7604 36.3725 45.2718 36.8187C44.7462 37.294 44.1357 37.4909 43.4405 37.4094C42.7784 37.3318 42.2466 37.0009 41.8452 36.4169C41.4731 35.8698 41.3093 35.2633 41.3538 34.5973ZM56.4661 39.2388C57.1889 40.2297 58.1297 40.7931 59.2884 40.9289C60.4472 41.0648 61.4266 40.7266 62.2266 39.9142C63.1513 39.1836 63.6816 38.2389 63.8175 37.0802C63.9533 35.9215 63.656 34.8798 62.9253 33.955C62.331 33.0128 61.4545 32.4737 60.2958 32.3378C59.1371 32.202 58.0934 32.5159 57.1648 33.2796C56.3394 34.0219 55.8588 34.9724 55.7229 36.1311C55.5871 37.2898 55.8348 38.3257 56.4661 39.2388ZM60.5625 34.7855C60.9678 35.3365 61.1462 35.9615 61.0978 36.6606L61.0687 36.9089C60.958 37.5672 60.6417 38.1174 60.12 38.5597C59.6275 39.0389 59.0502 39.2397 58.3881 39.1621C57.726 39.0844 57.1611 38.7497 56.6935 38.1579C56.3544 37.6147 56.2072 37.0101 56.2517 36.3441L56.2925 35.9965C56.3993 35.3714 56.6805 34.8338 57.136 34.3838C57.7278 33.9162 58.3548 33.7212 59.0169 33.7988C59.6791 33.8765 60.1943 34.2054 60.5625 34.7855Z" fill="white"/>
<path d="M41.3829 34.349L41.3538 34.5973C41.3092 35.2633 41.4731 35.8698 41.8452 36.4169C42.2466 37.0009 42.7783 37.3318 43.4405 37.4094C44.1357 37.4909 44.7461 37.294 45.2717 36.8187C45.7603 36.3725 46.06 35.8203 46.1708 35.1621L46.1999 34.9138C46.2483 34.2147 46.0864 33.5916 45.7143 33.0445C45.3129 32.4605 44.7646 32.1277 44.0693 32.0462C43.4072 31.9685 42.8133 32.1674 42.2877 32.6428C41.7991 33.0889 41.4975 33.6576 41.3829 34.349ZM61.0978 36.6606C61.1462 35.9615 60.9678 35.3365 60.5625 34.7855C60.1942 34.2054 59.679 33.8765 59.0169 33.7988C58.3548 33.7212 57.7278 33.9162 57.136 34.3838C56.6805 34.8338 56.3993 35.3714 56.2924 35.9965L56.2517 36.3441C56.2072 37.0101 56.3544 37.6147 56.6935 38.1579C57.1611 38.7497 57.7259 39.0844 58.3881 39.1621C59.0502 39.2397 59.6275 39.0389 60.12 38.5597C60.6417 38.1174 60.9579 37.5672 61.0687 36.9089L61.0978 36.6606Z" fill="#3C3E41"/>
<path d="M48.7401 32.1408L49.2706 29.3334L38.6023 27.5791L38.1215 30.3923L48.7401 32.1408ZM55.3291 30.0438L55.1959 32.8977L65.9309 33.653L66.1138 30.8049L55.3291 30.0438Z" fill="#3C3E41"/>
<path d="M50.4901 40.4007C48.1396 40.1251 46.0969 40.3723 44.3621 41.1421C42.7383 41.8243 41.7572 42.7497 41.4188 43.9183C41.3332 44.076 41.3118 44.2581 41.3547 44.4645C41.4015 44.6378 41.4834 44.7984 41.6003 44.9464C41.7172 45.0943 41.873 45.1965 42.0678 45.2529C44.8645 46.0171 47.5849 46.0005 50.2291 45.203C52.584 46.5867 55.2268 47.2322 58.1575 47.1395C58.36 47.1297 58.5353 47.0663 58.6832 46.9494C58.8312 46.8325 58.948 46.6952 59.0336 46.5374C59.1231 46.3465 59.161 46.1664 59.1473 45.997C59.0553 44.778 58.2983 43.6488 56.8763 42.6095C55.3336 41.4553 53.4035 40.7423 51.086 40.4706C50.9867 40.459 50.8874 40.4473 50.7881 40.4357C50.6888 40.424 50.5894 40.4124 50.4901 40.4007Z" fill="#3C3E41"/>
<path d="M53.2827 40.6275C53.9992 40.2416 54.3943 39.7342 54.468 39.1052C54.5379 38.5093 54.2709 37.9242 53.667 37.35C53.0553 36.8419 52.2694 36.5316 51.3094 36.4191C50.3824 36.3104 49.5626 36.4324 48.85 36.7851C48.1296 37.2041 47.7345 37.7115 47.6646 38.3075C47.5909 38.9365 47.8579 39.5216 48.4657 40.0627C49.0696 40.6369 49.835 40.9784 50.762 41.0871C51.7221 41.1997 52.5623 41.0465 53.2827 40.6275Z" fill="#955435"/>
<path d="M33.0546 18.2194L33.005 18.2136C32.3312 18.2353 31.7461 18.5023 31.2497 19.0146C30.7611 19.4607 30.5277 20.0207 30.5493 20.6945L30.5731 36.8069C30.5656 37.4436 30.7995 38.0248 31.2748 38.5504C31.758 39.0098 32.3364 39.2287 33.0102 39.207L33.0599 39.2128C33.7297 39.2242 34.2944 38.9884 34.7538 38.5053C35.2132 38.0221 35.4505 37.4291 35.4658 36.7261L35.4304 20.713C35.4126 20.0061 35.1621 19.423 34.679 18.9636C34.229 18.5081 33.6875 18.26 33.0546 18.2194ZM71.2286 23.2492C70.6854 23.5882 70.3234 24.0995 70.1425 24.7831L66.4038 40.3537C66.2561 41.0411 66.3498 41.673 66.685 42.2493C67.0201 42.8256 67.5149 43.1857 68.1693 43.3295L68.2189 43.3353C68.8363 43.5084 69.4332 43.4274 70.0094 43.0922C70.6266 42.6947 71.0052 42.1853 71.1451 41.564L74.8955 25.8942C75.0724 25.2437 74.9748 24.6449 74.6027 24.0979C74.2383 23.4846 73.7308 23.0895 73.0804 22.9125L73.0307 22.9067C72.3724 22.796 71.7717 22.9101 71.2286 23.2492Z" fill="#3C3E41"/>
<path d="M67.6688 25.7013C72.0656 24.8408 74.3688 23.5167 74.5784 21.7289C74.7841 19.9743 72.8342 18.2857 68.7285 16.6632C64.6891 15.0485 59.6635 13.9726 53.6519 13.4355C47.7025 12.9393 42.5294 13.1214 38.1327 13.9819C33.7651 14.8794 31.4784 16.2055 31.2727 17.9601C31.0631 19.7479 32.9965 21.4345 37.0729 23.02C41.1747 24.6756 46.2002 25.7515 52.1496 26.2477C58.1613 26.7848 63.3343 26.6027 67.6688 25.7013Z" fill="#3C3E41"/>
<path d="M6.90694 58.6223L7.76534 58.2122C11.7111 56.937 15.1522 56.8815 18.0887 58.0455C11.8951 54.3348 8.14611 54.518 6.84161 58.5952L6.90694 58.6223Z" fill="#A8603F"/>
<path d="M21.6563 70.044C22.4749 69.6685 22.6991 69.0342 22.3288 68.1413L18.0887 58.0455C15.1523 56.8815 11.7112 56.937 7.76538 58.2122L6.90698 58.6223L6.84164 58.5952C5.81276 58.9858 4.73507 59.4326 3.60856 59.9358L3.23907 60.089C2.37691 60.4465 2.09716 61.3383 2.39982 62.7644C2.77306 64.883 3.35809 66.8597 4.1549 68.6944C6.35609 73.9161 11.9128 74.4809 20.825 70.3887L21.6563 70.044Z" fill="#BF7958"/>
<defs>
<radialGradient id="paint0_radial_2_4" cx="0" cy="0" r="1" gradientUnits="userSpaceOnUse" gradientTransform="translate(49.3511 51.6598) scale(20.4816 13.5875)">
<stop stop-opacity="0.301961"/>
<stop offset="1" stop-opacity="0"/>
</radialGradient>
</defs>
</svg>
