<svg width="87" height="93" viewBox="0 0 87 93" fill="none" xmlns="http://www.w3.org/2000/svg">
<path d="M64.0119 68.0987L63.9652 68.1164C63.1503 68.3176 62.5255 68.7856 62.0905 69.5202C61.8731 69.8876 61.7357 70.2781 61.6783 70.6918C61.6403 71.0625 61.6765 71.4409 61.7868 71.8268L62.6696 75.716L64.1809 84.6596L81.4869 80.948L80.9578 77.9942L74.3434 73.2256L68.7757 74.4759L67.74 70.3238C67.5076 69.5207 67.0241 68.9018 66.2894 68.4669C65.5859 68.0202 64.8268 67.8974 64.0119 68.0987ZM66.2435 70.8898C66.3538 71.2757 66.3158 71.6464 66.1295 72.002C65.9003 72.3381 65.5927 72.5614 65.2068 72.6717C64.8208 72.782 64.4501 72.744 64.0946 72.5577C63.7272 72.3403 63.4884 72.0386 63.3781 71.6526C63.2678 71.2667 63.3369 70.8842 63.5856 70.5051C63.803 70.1377 64.1047 69.8989 64.4906 69.7886C64.8766 69.6783 65.2532 69.7318 65.6205 69.9493C65.9255 70.1903 66.1332 70.5038 66.2435 70.8898Z" fill="#334E63"/>
<path d="M66.1295 72.0019C66.3158 71.6464 66.3538 71.2756 66.2435 70.8897C66.1332 70.5038 65.9255 70.1903 65.6205 69.9493C65.2532 69.7318 64.8766 69.6782 64.4906 69.7885C64.1047 69.8989 63.803 70.1377 63.5856 70.505C63.3369 70.8842 63.2678 71.2667 63.3781 71.6526C63.4884 72.0385 63.7272 72.3402 64.0946 72.5577C64.4501 72.744 64.8208 72.7819 65.2068 72.6716C65.5927 72.5613 65.9003 72.3381 66.1295 72.0019ZM54.4632 60.3771C53.1393 61.3054 52.3353 62.5717 52.051 64.1759C51.7786 65.8114 52.1124 67.3066 53.0525 68.6617C53.9808 69.9856 55.2686 70.7993 56.9159 71.103C58.403 71.3602 59.6491 71.9224 60.6542 72.7896L60.6719 72.8364C61.5176 73.6109 62.1835 74.5707 62.6696 75.7159L61.7868 71.8268C61.6765 71.4408 61.6403 71.0625 61.6783 70.6917C61.7357 70.278 61.8731 69.8875 62.0905 69.5202C62.5254 68.7855 63.1503 68.3176 63.9651 68.1163L64.0119 68.0986C64.8267 67.8974 65.5859 68.0201 66.2894 68.4668C67.0241 68.9017 67.5076 69.5207 67.74 70.3237L68.7757 74.4758L74.3434 73.2256C73.5998 70.9765 72.6872 68.9874 71.6056 67.2582C68.7339 62.963 64.515 60.3354 58.949 59.3756C57.3018 59.0719 55.8065 59.4058 54.4632 60.3771Z" fill="#477CA6"/>
<path d="M48.8392 90L44.0674 84H38.2674L38.9767 79.65C39.1125 78.8166 38.9294 78.1 38.4272 77.5C37.925 76.9 37.2573 76.6 36.4239 76.6H36.3739C35.5406 76.6 34.775 76.9 34.0772 77.5C33.7283 77.8 33.4406 78.1333 33.2142 78.5C33.021 78.8666 32.8919 79.25 32.8267 79.65L30.3501 93H48.2501L48.8392 90ZM36.1386 78.35C36.5386 78.35 36.8642 78.5 37.1153 78.8C37.3663 79.1 37.4593 79.45 37.3941 79.85C37.3288 80.25 37.1218 80.6 36.7729 80.9C36.424 81.2 36.0495 81.35 35.6495 81.35C35.2495 81.35 34.924 81.2 34.6729 80.9C34.4218 80.6 34.3288 80.25 34.3941 79.85C34.4593 79.45 34.6663 79.1 35.0153 78.8C35.3642 78.5 35.7386 78.35 36.1386 78.35Z" fill="#334E63"/>
<path d="M37.1153 78.8C36.8642 78.5 36.5386 78.35 36.1386 78.35C35.7386 78.35 35.3642 78.5 35.0153 78.8C34.6663 79.1 34.4593 79.45 34.3941 79.85C34.3288 80.25 34.4218 80.6 34.6729 80.9C34.924 81.2 35.2495 81.35 35.6495 81.35C36.0495 81.35 36.424 81.2 36.7729 80.9C37.1218 80.6 37.3288 80.25 37.3941 79.85C37.4593 79.45 37.3663 79.1 37.1153 78.8ZM47.0326 69.8C47.2935 68.2 46.883 66.8333 45.8011 65.7C44.7525 64.5667 43.3282 64 41.5282 64C39.7616 64 38.1525 64.5667 36.7011 65.7C35.2496 66.8333 34.3935 68.2 34.1326 69.8L33.2142 78.5C33.4406 78.1333 33.7283 77.8 34.0772 77.5C34.775 76.9 35.5406 76.6 36.3739 76.6H36.4239C37.2573 76.6 37.925 76.9 38.4272 77.5C38.9294 78.1 39.1125 78.8167 38.9767 79.65L38.2674 84H44.0674H44.1174L47.0326 69.8Z" fill="#477CA6"/>
<path d="M17.3079 60.7307C18.0631 61.1667 18.8536 61.4307 19.6796 61.5227C18.3149 62.8975 17.0696 64.4879 15.9437 66.2938C15.3815 67.2009 14.5335 67.7698 13.3996 68.0005C12.3402 68.2356 11.328 68.0554 10.3632 67.4599C9.39835 66.8644 8.76951 66.0202 8.47666 64.9274C8.25822 63.8391 8.43008 62.8414 8.99224 61.9343C10.6086 59.3642 12.4005 57.1271 14.3678 55.223C14.2916 55.8907 14.3547 56.5815 14.5571 57.2952C15.0053 58.7856 15.9222 59.9308 17.3079 60.7307ZM22.9325 50.9879C22.3365 50.6438 21.738 50.4138 21.1371 50.2978C24.3487 48.6115 27.8964 47.5998 31.7803 47.2626C32.9219 47.1519 33.9417 47.4521 34.8399 48.163C35.7381 48.874 36.2448 49.7631 36.3599 50.8303C36.5329 51.9308 36.2722 52.9157 35.5779 53.785C34.8713 54.6088 33.9617 55.0844 32.849 55.2118C30.3201 55.464 27.9751 56.0924 25.8141 57.097C25.9825 56.2685 25.945 55.4001 25.7016 54.4917C25.2412 52.9558 24.3182 51.7879 22.9325 50.9879ZM22.2768 54.8239C22.3256 55.006 22.3516 55.1943 22.3549 55.3886C22.3981 55.9139 22.278 56.4219 21.9947 56.9126C21.6113 57.5766 21.0554 58.0062 20.3269 58.2014C19.5695 58.38 18.8444 58.2693 18.1516 57.8693C17.6319 57.5693 17.2367 57.1872 16.9659 56.7229C16.9171 56.5408 16.8683 56.3587 16.8195 56.1765C16.7052 55.8411 16.6403 55.5535 16.6248 55.3136C16.6516 54.8672 16.7817 54.4419 17.015 54.0378C17.3983 53.3738 17.9831 52.9609 18.7694 52.799C19.4979 52.6038 20.2086 52.7062 20.9014 53.1061C21.3344 53.3561 21.6597 53.6594 21.8772 54.0159C22.0415 54.2647 22.1747 54.534 22.2768 54.8239Z" fill="#477CA6"/>
<path d="M14.3678 55.223C14.3999 54.434 14.6245 53.6784 15.0414 52.9561C15.8081 51.6282 16.9799 50.7652 18.5569 50.367C19.4296 50.147 20.2896 50.124 21.1371 50.2978C21.738 50.4137 22.3365 50.6438 22.9325 50.9879C24.3182 51.7878 25.2412 52.9558 25.7016 54.4917C25.945 55.4001 25.9825 56.2685 25.8141 57.0969C25.7042 57.6873 25.4908 58.257 25.174 58.8058C24.4073 60.1337 23.25 61.0051 21.7018 61.4199C20.9995 61.5748 20.3254 61.609 19.6796 61.5226C18.8536 61.4307 18.0631 61.1667 17.3079 60.7307C15.9222 59.9308 15.0053 58.7856 14.5571 57.2952C14.3547 56.5815 14.2916 55.8907 14.3678 55.223ZM22.3549 55.3886C22.3516 55.1942 22.3256 55.006 22.2768 54.8239C22.1747 54.534 22.0415 54.2647 21.8772 54.0159C21.6597 53.6593 21.3344 53.3561 20.9014 53.1061C20.2086 52.7061 19.4979 52.6038 18.7694 52.799C17.9831 52.9609 17.3983 53.3738 17.015 54.0378C16.7817 54.4419 16.6516 54.8672 16.6249 55.3136C16.6403 55.5535 16.7052 55.8411 16.8195 56.1765C16.8683 56.3586 16.9171 56.5408 16.9659 56.7229C17.2367 57.1871 17.632 57.5693 18.1516 57.8693C18.8444 58.2692 19.5695 58.3799 20.3269 58.2014C21.0554 58.0061 21.6114 57.5765 21.9947 56.9126C22.278 56.4218 22.3981 55.9138 22.3549 55.3886Z" fill="#334E63"/>
<path d="M70.2524 31.395C69.387 31.2882 68.5561 31.3536 67.7597 31.5911C68.4799 29.7928 69.0061 27.8426 69.3382 25.7406C69.502 24.686 70.0609 23.8314 71.0149 23.1767C71.8987 22.5469 72.9009 22.318 74.0216 22.4899C75.1423 22.6618 76.0506 23.1937 76.7466 24.0857C77.3723 25.0026 77.6033 25.9883 77.4395 27.0428C76.9539 30.0398 76.1768 32.7986 75.1081 35.3193C74.9178 34.6748 74.5903 34.0634 74.1254 33.4852C73.1313 32.2877 71.8403 31.591 70.2524 31.395ZM68.8743 42.56C69.5574 42.6444 70.1982 42.6227 70.7967 42.4951C68.4975 45.3006 65.6256 47.6162 62.181 49.4418C61.173 49.9891 60.1169 50.1106 59.0125 49.8064C57.9082 49.5021 57.0948 48.8812 56.5724 47.9435C55.9839 46.9976 55.8397 45.989 56.1398 44.9177C56.469 43.8836 57.121 43.0909 58.0959 42.5395C60.326 41.3207 62.24 39.8273 63.8378 38.0593C64.006 38.8878 64.3793 39.6727 64.9578 40.4141C65.9809 41.6488 67.2864 42.3641 68.8743 42.56ZM67.9816 38.7722C67.8656 38.6236 67.7682 38.4604 67.6894 38.2828C67.4447 37.816 67.3571 37.3014 67.4265 36.739C67.5204 35.9781 67.8647 35.3657 68.4593 34.9017C69.0871 34.4418 69.7979 34.2609 70.5919 34.3589C71.1873 34.4324 71.7003 34.63 72.1308 34.9518C72.2468 35.1005 72.3628 35.2492 72.4788 35.3978C72.7148 35.6621 72.8868 35.9016 72.9946 36.1164C73.1441 36.5379 73.1903 36.9802 73.1331 37.4433C73.0392 38.2042 72.6618 38.8126 72.001 39.2684C71.4064 39.7323 70.7121 39.9153 69.9181 39.8173C69.4219 39.7561 69.0041 39.6037 68.6647 39.3603C68.4164 39.1954 68.1887 38.9993 67.9816 38.7722Z" fill="#477CA6"/>
<path d="M75.1081 35.3193C75.3863 36.0583 75.4744 36.8416 75.3722 37.6693C75.1844 39.191 74.4421 40.4428 73.1454 41.4247C72.4277 41.9677 71.6448 42.3244 70.7967 42.495C70.1982 42.6226 69.5574 42.6443 68.8743 42.56C67.2864 42.364 65.9809 41.6487 64.9578 40.4141C64.3793 39.6727 64.006 38.8877 63.8378 38.0592C63.7087 37.4727 63.683 36.865 63.7606 36.2361C63.9484 34.7143 64.6741 33.4605 65.9377 32.4745C66.524 32.0579 67.1313 31.7634 67.7596 31.5911C68.5561 31.3535 69.387 31.2881 70.2524 31.395C71.8403 31.591 73.1313 32.2877 74.1254 33.4851C74.5902 34.0633 74.9178 34.6747 75.1081 35.3193ZM67.6894 38.2827C67.7682 38.4604 67.8656 38.6235 67.9816 38.7722C68.1887 38.9993 68.4164 39.1953 68.6647 39.3603C69.0041 39.6037 69.4219 39.756 69.9181 39.8173C70.7121 39.9153 71.4064 39.7323 72.001 39.2683C72.6618 38.8125 73.0392 38.2042 73.1331 37.4433C73.1903 36.9801 73.1441 36.5378 72.9946 36.1164C72.8868 35.9015 72.7148 35.662 72.4788 35.3978C72.3628 35.2491 72.2468 35.1004 72.1308 34.9518C71.7003 34.63 71.1873 34.4323 70.5919 34.3588C69.7979 34.2608 69.0871 34.4418 68.4593 34.9016C67.8647 35.3656 67.5204 35.978 67.4265 36.7389C67.3571 37.3013 67.4447 37.8159 67.6894 38.2827Z" fill="#334E63"/>
<path d="M31.7694 52.4627C32.8308 50.9904 33.206 49.3678 32.8949 47.5948C32.5838 45.8219 31.6785 44.424 30.1791 43.4011C28.7126 42.3724 27.0928 42.0137 25.3199 42.3248C23.547 42.6359 22.1626 43.5219 21.1668 44.9827C20.1381 46.4492 19.7794 48.069 20.0905 49.8419C20.4016 51.6148 21.2905 53.0156 22.757 54.0443C24.1907 55.0787 25.7941 55.4404 27.567 55.1292C29.3399 54.8181 30.7407 53.9292 31.7694 52.4627ZM65.3071 46.5771C66.3357 45.1105 66.6945 43.4908 66.3834 41.7179C66.0722 39.945 65.1834 38.5442 63.7168 37.5155C62.2503 36.4868 60.6305 36.1281 58.8576 36.4392C57.0847 36.7503 55.7003 37.6363 54.7045 39.0971C53.643 40.5694 53.2678 42.192 53.5789 43.965C53.8901 45.7379 54.7953 47.1358 56.2947 48.1587C57.7285 49.1931 59.3318 49.5548 61.1047 49.2436C62.8776 48.9325 64.2784 48.0436 65.3071 46.5771Z" fill="#334E63"/>
<path d="M61.1887 70.5499C61.8833 69.1081 62.0733 67.298 61.7587 65.1196L32.3085 70.2878C32.7545 72.4432 33.5495 74.0805 34.6935 75.1996L61.1887 70.5499Z" fill="#5393C5"/>
<path d="M54.3445 61.3443C54.9774 59.7441 55.1326 58.0248 54.8099 56.1862C54.349 53.5596 53.035 51.472 50.868 49.9232C48.6682 48.3802 46.255 47.8392 43.6285 48.3001C41.0019 48.7611 38.9171 50.0915 37.3741 52.2913C35.8311 54.4911 35.2901 56.9043 35.7511 59.5309C36.0737 61.3695 36.8214 62.9304 37.9942 64.2137L31.4443 65.3631L32.3086 70.2879L61.7587 65.1196L60.8944 60.1949L54.3445 61.3443ZM50.0112 55.4546L49.2935 60.9108C49.2837 61.0479 49.2218 61.1773 49.1078 61.2988C48.9937 61.4203 48.8546 61.4955 48.6905 61.5243L43.5195 62.4318C43.3881 62.4548 43.2482 62.4286 43.0995 62.3532C42.9181 62.2835 42.7994 62.1859 42.7436 62.0603L40.2109 57.1745C40.1493 57.0161 40.1205 56.8519 40.1245 56.682C40.1671 56.5392 40.2426 56.3906 40.3508 56.2362L44.0417 52.3903C44.1229 52.2745 44.2456 52.2022 44.4097 52.1734C44.541 52.1504 44.6974 52.1737 44.8789 52.2434L49.6094 54.6114C49.731 54.7254 49.8361 54.8423 49.9248 54.9622C49.9864 55.1205 50.0152 55.2847 50.0112 55.4546Z" fill="#334E63"/>
<path d="M49.2935 60.9108L50.0112 55.4546C50.0152 55.2847 49.9864 55.1205 49.9248 54.9621C49.8361 54.8423 49.7309 54.7254 49.6094 54.6114L44.8789 52.2434C44.6974 52.1737 44.541 52.1504 44.4097 52.1734C44.2456 52.2022 44.1229 52.2745 44.0417 52.3903L40.3508 56.2362C40.2426 56.3905 40.1671 56.5392 40.1245 56.682C40.1205 56.8519 40.1493 57.0161 40.2109 57.1745L42.7436 62.0603C42.7994 62.1859 42.9181 62.2835 43.0995 62.3532C43.2482 62.4286 43.3881 62.4548 43.5195 62.4318L48.6905 61.5243C48.8546 61.4955 48.9937 61.4203 49.1078 61.2988C49.2218 61.1772 49.2837 61.0479 49.2935 60.9108Z" fill="#FF6699"/>
<path d="M61.7188 46.0899C61.9635 42.6627 60.9223 41.0687 58.5952 41.3078L53.3257 42.2326C53.3142 42.1669 53.2998 42.0848 53.2825 41.9863C53.2865 41.8164 53.2741 41.6494 53.2453 41.4852C52.8132 39.0228 51.4402 37.0809 49.1263 35.6595C46.7641 34.348 44.1383 33.9458 41.2491 34.4529C38.3599 34.9599 36.0281 36.2321 34.2535 38.2695C32.5619 40.3939 31.9321 42.6873 32.3643 45.1497C32.3931 45.3138 32.4383 45.4751 32.5 45.6335C32.5172 45.732 32.5481 45.8112 32.5924 45.8711L27.5199 46.7613C25.1001 47.0506 24.549 48.9241 25.8665 52.3817L31.4443 65.3631L37.9942 64.2136C36.8214 62.9304 36.0737 61.3694 35.751 59.5308C35.2901 56.9043 35.8311 54.4911 37.3741 52.2913C38.9171 50.0914 41.0019 48.7611 43.6285 48.3001C46.255 47.8392 48.6682 48.3802 50.868 49.9232C53.035 51.472 54.349 53.5596 54.8099 56.1862C55.1326 58.0247 54.9774 59.7441 54.3445 61.3443L60.8944 60.1948L61.7188 46.0899Z" fill="#477CA6"/>
<path d="M58.6562 30.25C55.1741 27.65 50.9553 26.35 46 26.35C41.0447 26.35 36.7813 27.65 33.2099 30.25C29.7278 32.9166 27.9867 36.1 27.9867 39.8C27.9867 43.5 29.7278 46.65 33.2099 49.25C36.7813 51.9166 41.0447 53.25 46 53.25C50.9553 53.25 55.1741 51.9166 58.6562 49.25C62.2276 46.65 64.0133 43.5 64.0133 39.8C64.0133 36.1 62.2276 32.9166 58.6562 30.25Z" fill="url(#paint0_radial_2_8294)"/>
<path d="M58.1077 30.5484C61.497 27.1046 63.1607 22.9662 63.0986 18.1333C63.0365 13.3004 61.2668 9.18953 57.7897 5.80062C54.3126 2.41171 50.1576 0.74831 45.3247 0.810408C40.4918 0.872506 36.3809 2.64212 32.992 6.11925C29.6031 9.59638 27.9397 13.7514 28.0018 18.5843C28.0639 23.4172 29.8333 27.5114 33.31 30.867C36.7875 34.2892 40.9428 35.9693 45.7756 35.9072C50.6085 35.8451 54.7192 34.0588 58.1077 30.5484ZM55.4993 18.231C55.5344 20.964 54.5978 23.3096 52.6895 25.2676C50.7482 27.2593 48.4111 28.2728 45.678 28.3079C42.9449 28.343 40.5992 27.3897 38.6407 25.4481C36.6494 23.5402 35.6362 21.2197 35.6011 18.4866C35.566 15.7536 36.5192 13.4078 38.4609 11.4494C40.3688 9.45805 42.6892 8.44483 45.4223 8.40971C48.1554 8.37459 50.5178 9.32764 52.5096 11.2689C54.4676 13.1772 55.4641 15.4979 55.4993 18.231Z" fill="#BFD4E5"/>
<path d="M52.6895 25.2676C54.5978 23.3096 55.5344 20.9641 55.4993 18.231C55.4641 15.4979 54.4676 13.1772 52.5096 11.2689C50.5178 9.32769 48.1554 8.37464 45.4223 8.40976C42.6892 8.44488 40.3688 9.4581 38.4609 11.4494C36.5192 13.4078 35.566 15.7536 35.6011 18.4867C35.6362 21.2198 36.6494 23.5403 38.6407 25.4481C40.5992 27.3898 42.9449 28.3431 45.678 28.3079C48.4111 28.2728 50.7482 27.2594 52.6895 25.2676Z" fill="white"/>
<path d="M29.9602 7.55838C29.3317 7.93315 28.9221 8.48845 28.7316 9.22429L26.6371 17.4518C26.4466 18.1876 26.5391 18.9032 26.9147 19.5984C27.3561 20.2261 27.9448 20.6352 28.6806 20.8258L28.7306 20.8252C29.4664 21.0157 30.1655 20.9401 30.8278 20.5982C31.4889 20.1563 31.9147 19.5675 32.1052 18.8316L34.1497 10.6048C34.3403 9.86894 34.2313 9.17029 33.8227 8.50882C33.4475 7.84693 32.9087 7.42049 32.2062 7.2295L32.1562 7.23014C31.4204 7.03958 30.6884 7.14899 29.9602 7.55838Z" fill="#477CA6"/>
<path d="M62.2785 8.7932C62.0691 8.06251 61.6454 7.51791 61.0074 7.15941C60.269 6.76887 59.5345 6.6783 58.8038 6.88771L58.7538 6.88835C58.0231 7.09775 57.4787 7.53811 57.1206 8.20943C56.7292 8.88117 56.6382 9.5824 56.8476 10.3131L59.1528 18.4841C59.3622 19.2148 59.803 19.7925 60.4751 20.2172C61.146 20.542 61.8468 20.5996 62.5775 20.3902L62.6275 20.3896C63.3249 20.1806 63.8861 19.7567 64.3113 19.1178C64.6689 18.4132 64.7431 17.6955 64.5337 16.9648L62.2785 8.7932Z" fill="#477CA6"/>
<path d="M21.5609 27.1178C20.0145 28.7044 19.2555 30.5976 19.2837 32.7974C19.312 34.9972 20.1192 36.8537 21.7055 38.3667C23.3259 39.946 25.2193 40.7218 27.3858 40.6939C29.5856 40.6657 31.4751 39.8413 33.0544 38.2209C34.5679 36.668 35.3105 34.7917 35.2823 32.5919C35.254 30.3921 34.4632 28.5188 32.9099 26.9719C31.2895 25.3926 29.3794 24.6171 27.1796 24.6454C25.0131 24.6732 23.1402 25.4973 21.5609 27.1178ZM23.977 36.1374C23.0318 35.2161 22.5506 34.0889 22.5334 32.7557C22.5167 31.4558 22.9688 30.3166 23.8896 29.338C24.8109 28.3928 25.9215 27.9118 27.2213 27.8951C28.5879 27.8775 29.7438 28.3294 30.689 29.2506C31.6347 30.2052 32.1159 31.3325 32.1326 32.6323C32.1497 33.9655 31.6976 35.1048 30.7764 36.05C29.8555 37.0286 28.7119 37.5266 27.3453 37.5442C26.0454 37.5609 24.9227 37.092 23.977 36.1374ZM64.1762 24.17C62.0097 24.1979 60.1368 25.022 58.5575 26.6424C57.0111 28.229 56.2521 30.1223 56.2804 32.3221C56.3086 34.5219 57.1159 36.3783 58.7021 37.8914C60.3225 39.4707 62.2159 40.2464 64.3824 40.2185C66.5822 40.1903 68.4717 39.3659 70.051 37.7455C71.5645 36.1926 72.3072 34.3163 72.2789 32.1165C72.2506 29.9167 71.4598 28.0434 69.9065 26.4966C68.2861 24.9173 66.376 24.1417 64.1762 24.17ZM64.3419 37.0688C63.0421 37.0855 61.9193 36.6166 60.9736 35.662C59.995 34.7412 59.4972 33.6142 59.4801 32.2809C59.4634 30.9811 59.9321 29.8416 60.8862 28.8626C61.8075 27.9174 62.9181 27.4364 64.2179 27.4197C65.5512 27.4026 66.7071 27.8544 67.6856 28.7753C68.6313 29.7298 69.1125 30.8571 69.1292 32.157C69.1463 33.4902 68.6942 34.6294 67.773 35.5746C66.8188 36.5536 65.6751 37.0517 64.3419 37.0688Z" fill="#5393C5"/>
<path d="M22.5334 32.7556C22.5506 34.0888 23.0318 35.2161 23.977 36.1373C24.9227 37.0919 26.0454 37.5608 27.3453 37.5441C28.7119 37.5266 29.8555 37.0285 30.7764 36.05C31.6976 35.1047 32.1497 33.9655 32.1326 32.6323C32.1159 31.3324 31.6347 30.2052 30.689 29.2506C29.7438 28.3293 28.5879 27.8775 27.2213 27.895C25.9215 27.9117 24.8109 28.3927 23.8896 29.3379C22.9688 30.3165 22.5167 31.4557 22.5334 32.7556ZM60.9736 35.6619C61.9193 36.6165 63.0421 37.0855 64.3419 37.0688C65.6751 37.0516 66.8188 36.5536 67.773 35.5746C68.6942 34.6293 69.1463 33.4901 69.1292 32.1569C69.1125 30.857 68.6313 29.7298 67.6856 28.7752C66.7071 27.8544 65.5512 27.4025 64.2179 27.4197C62.9181 27.4364 61.8075 27.9173 60.8862 28.8626C59.9321 29.8416 59.4634 30.981 59.4801 32.2809C59.4972 33.6141 59.995 34.7411 60.9736 35.6619Z" fill="#477CA6"/>
<path d="M28.2545 46.033L36.2537 45.9303C36.1365 39.398 32.9823 35.2048 26.7914 33.3509L28.2545 46.033ZM58.1517 45.6489C61.7121 45.1364 63.7208 43.2105 64.1779 39.871L64.9654 31.1103C58.9725 34.2875 55.9013 39.144 55.7519 45.6797L58.1517 45.6489Z" fill="#334E63"/>
<path d="M64.9654 31.1103L66.4981 14.1894L24.652 14.7271L26.7914 33.3509C32.9823 35.2049 36.1364 39.398 36.2537 45.9303L55.7519 45.6798C55.9013 39.144 58.9725 34.2875 64.9654 31.1103Z" fill="#5393C5"/>
<path d="M51.7404 33.1304C53.2868 31.5437 54.0459 29.6505 54.0176 27.4507C53.9889 25.2176 53.1814 23.3445 51.5952 21.8314C50.0086 20.285 48.1153 19.5259 45.9155 19.5542C43.6824 19.5829 41.8093 20.3904 40.2963 21.9766C38.7494 23.5299 37.9904 25.4231 38.0191 27.6562C38.0473 29.856 38.8548 31.7291 40.4414 33.2755C41.9948 34.8224 43.888 35.5814 46.1211 35.5527C48.3209 35.5245 50.194 34.717 51.7404 33.1304ZM51.3678 27.4847C51.3867 28.9513 50.8695 30.208 49.8162 31.2549C48.7966 32.3348 47.5536 32.8841 46.0871 32.903C44.5872 32.9222 43.2971 32.4055 42.2169 31.3526C41.1703 30.3326 40.6377 29.0894 40.6188 27.6228C40.5995 26.123 41.0997 24.8331 42.1192 23.7533C43.1729 22.7397 44.4497 22.2232 45.9496 22.204C47.4161 22.1851 48.6724 22.669 49.7185 23.6556C50.7988 24.7085 51.3486 25.9849 51.3678 27.4847Z" fill="#477CA6"/>
<path d="M49.8162 31.2549C50.8695 30.208 51.3867 28.9512 51.3678 27.4847C51.3486 25.9848 50.7988 24.7085 49.7185 23.6556C48.6724 22.669 47.4161 22.1851 45.9496 22.2039C44.4497 22.2232 43.1729 22.7397 42.1192 23.7533C41.0997 24.8331 40.5995 26.123 40.6188 27.6228C40.6377 29.0894 41.1703 30.3326 42.2169 31.3526C43.2971 32.4054 44.5872 32.9222 46.0871 32.903C47.5536 32.8841 48.7966 32.3348 49.8162 31.2549ZM49.118 27.5136C49.1257 28.1136 48.9155 28.6163 48.4874 29.0218C48.1263 29.4598 47.6458 29.6827 47.0459 29.6904C46.4459 29.6981 45.9265 29.4881 45.4876 29.0604C45.0825 28.6656 44.8761 28.1682 44.8684 27.5682C44.8607 26.9683 45.0541 26.4491 45.4485 26.0107C45.8766 25.6051 46.3907 25.3985 46.9906 25.3908C47.5906 25.3831 48.0764 25.5769 48.4482 25.9721C48.887 26.3998 49.1103 26.9137 49.118 27.5136Z" fill="#FFCC00"/>
<path d="M48.4874 29.0219C48.9155 28.6163 49.1257 28.1136 49.118 27.5137C49.1103 26.9137 48.887 26.3999 48.4482 25.9721C48.0764 25.5769 47.5906 25.3831 46.9906 25.3908C46.3907 25.3985 45.8766 25.6052 45.4485 26.0107C45.0541 26.4491 44.8607 26.9683 44.8684 27.5683C44.8761 28.1682 45.0825 28.6656 45.4876 29.0604C45.9265 29.4881 46.4459 29.6981 47.0459 29.6904C47.6458 29.6827 48.1263 29.4599 48.4874 29.0219Z" fill="white"/>
<path d="M61.3971 29.7061C61.9898 29.1317 62.281 28.4446 62.2707 27.6447C62.2604 26.8448 61.9515 26.1487 61.3438 25.5564C60.7699 24.9971 60.083 24.7226 59.2831 24.7329C58.4831 24.7431 57.7869 25.0354 57.1942 25.6098C56.6353 26.217 56.361 26.9206 56.3712 27.7205C56.3815 28.5204 56.6736 29.2 57.2475 29.7594C57.8547 30.3183 58.5583 30.5926 59.3582 30.5823C60.1582 30.572 60.8378 30.2799 61.3971 29.7061Z" fill="#477CA6"/>
<path d="M34.6996 30.0491C35.2922 29.4748 35.5834 28.7877 35.5731 27.9877C35.5629 27.1878 35.2539 26.4917 34.6462 25.8995C34.0723 25.3401 33.4021 25.0654 32.6355 25.0753C31.8356 25.0855 31.1393 25.3778 30.5466 25.9522C29.9877 26.5594 29.7134 27.263 29.7237 28.0629C29.734 28.8628 30.026 29.5424 30.5999 30.1018C31.2072 30.6607 31.9107 30.935 32.7107 30.9247C33.4773 30.9149 34.1402 30.623 34.6996 30.0491Z" fill="#477CA6"/>
<path d="M56.3172 19.6205C55.4078 18.8988 54.3032 18.5463 53.0033 18.563L39.3046 18.7391C38.0047 18.7558 36.8929 19.1367 35.969 19.882C35.079 20.6602 34.6408 21.5825 34.6545 22.6491C34.6682 23.7157 35.1297 24.6098 36.0391 25.3315C36.9822 26.0861 38.1036 26.4551 39.4035 26.4383L53.1023 26.2623C54.4022 26.2456 55.4971 25.8482 56.3872 25.07C57.311 24.3248 57.7661 23.4189 57.7524 22.3523C57.7387 21.2857 57.2603 20.3751 56.3172 19.6205Z" fill="#5393C5"/>
<path d="M47.2276 39.9389C47.0912 39.7073 46.8727 39.5601 46.5718 39.4973L40.7512 37.922C40.4499 37.8258 40.1501 37.8463 39.8519 37.9835C39.6207 38.1532 39.4739 38.4051 39.4116 38.7392C39.3159 39.0738 39.3364 39.3736 39.4731 39.6385C39.6432 39.903 39.8789 40.0833 40.1801 40.1795L46.0008 41.7548C46.3016 41.8176 46.5843 41.764 46.8488 41.5939C47.0804 41.4576 47.244 41.2221 47.3398 40.8875C47.4021 40.5534 47.3647 40.2372 47.2276 39.9389Z" fill="#334E63"/>
<path d="M78.5791 16.1519C78.488 16.1763 78.453 16.1369 78.4742 16.0336C78.4664 15.9137 78.4815 15.7877 78.5193 15.6555L80.2693 12.6245C80.3193 12.5379 80.4292 12.4474 80.5992 12.3531C80.6736 12.3576 80.7541 12.3848 80.8407 12.4348C82.4406 13.397 83.4845 14.7888 83.9725 16.6101L84.0158 16.6351C84.5283 18.5475 84.3133 20.3864 83.3711 22.1518C82.3833 23.9293 80.962 25.091 79.1073 25.6367L78.9024 25.6916C79.0719 25.3617 79.1975 25.0109 79.2792 24.639C79.6181 23.373 79.4747 22.1547 78.849 20.9843C79.1756 20.7519 79.4395 20.4616 79.6405 20.1134C79.9661 19.4161 80.0685 18.7054 79.9477 17.9814C79.9188 17.9647 79.8839 17.9253 79.8428 17.8631C79.6765 17.1512 79.2552 16.5808 78.5791 16.1519ZM69.0887 23.4897C68.8797 23.2988 68.6677 23.0994 68.4526 22.8915C67.0527 21.5829 66.3242 19.9114 66.2672 17.8769C66.2678 15.8759 66.9391 14.1465 68.281 12.6889C68.2977 12.66 68.3144 12.6311 68.331 12.6023C69.6807 11.2646 71.2839 10.5544 73.1407 10.4717C73.2606 10.464 73.3639 10.4851 73.4505 10.5351C73.4916 10.5973 73.5015 10.6801 73.4804 10.7833L73.6441 14.3997C73.6685 14.4907 73.664 14.5651 73.6307 14.6229C73.5063 14.705 73.3986 14.7583 73.3075 14.7827C72.5879 14.8291 71.9582 15.1198 71.4183 15.6549C71.4016 15.6838 71.385 15.7126 71.3683 15.7415C70.8573 16.2932 70.6083 16.9578 70.6214 17.7351C70.6403 18.3506 70.795 18.8825 71.0856 19.331C70.2114 20.0894 69.6098 21.0315 69.2807 22.1572C69.1726 22.6009 69.1086 23.045 69.0887 23.4897Z" fill="#BFD4E5"/>
<path d="M76.9145 27.8348C75.7205 28.5696 74.4234 28.7829 73.0232 28.4748C71.6685 28.1546 70.6033 27.3664 69.8274 26.1101C69.3509 25.2598 69.1047 24.3863 69.0887 23.4897C69.1086 23.0451 69.1726 22.6009 69.2807 22.1572C69.6098 21.0315 70.2114 20.0894 71.0856 19.3311C71.2764 19.1903 71.4713 19.0526 71.6704 18.9182C72.8933 18.2001 74.1965 18.0095 75.5801 18.3464C76.9469 18.7122 77.9978 19.4921 78.7325 20.6861C78.7865 20.7797 78.8253 20.8791 78.849 20.9843C79.4747 22.1548 79.6181 23.373 79.2792 24.6391C79.1975 25.0109 79.0719 25.3618 78.9024 25.6917C78.5088 26.5841 77.8462 27.2985 76.9145 27.8348Z" fill="#5393C5"/>
<path d="M8.4711 74.0482C8.56216 74.0238 8.59713 74.0632 8.576 74.1665C8.58374 74.2865 8.56871 74.4125 8.53091 74.5446L6.78096 77.5757C6.73096 77.6623 6.621 77.7528 6.45106 77.8471C6.37666 77.8427 6.29616 77.8154 6.20956 77.7654C4.60964 76.8033 3.56565 75.4115 3.07759 73.5902L3.03429 73.5652C2.52183 71.6527 2.73672 69.8138 3.67895 68.0484C4.66672 66.2709 6.08795 65.1092 7.94263 64.5634L8.14753 64.5085C7.9781 64.8384 7.85251 65.1893 7.77075 65.5611C7.43192 66.8272 7.57535 68.0454 8.20106 69.2158C7.87444 69.4483 7.61061 69.7386 7.40957 70.0868C7.08398 70.7841 6.9816 71.4947 7.10242 72.2188C7.13129 72.2355 7.16626 72.2749 7.20733 72.3371C7.37368 73.049 7.79494 73.6194 8.4711 74.0482ZM17.9614 66.7102C18.1703 66.9011 18.3824 67.1005 18.5975 67.3084C19.9974 68.617 20.7259 70.2885 20.7831 72.323C20.7824 74.3241 20.1112 76.0534 18.7693 77.5111C18.7526 77.54 18.7359 77.5688 18.7193 77.5977C17.3696 78.9354 15.7664 79.6456 13.9096 79.7284C13.7897 79.7361 13.6864 79.715 13.5998 79.665C13.5588 79.6028 13.5488 79.52 13.5699 79.4168L13.4061 75.8004C13.3817 75.7093 13.3862 75.6349 13.4195 75.5772C13.5439 75.4951 13.6517 75.4418 13.7427 75.4174C14.4623 75.371 15.0921 75.0802 15.6319 74.5451C15.6486 74.5163 15.6653 74.4874 15.6819 74.4585C16.1929 73.9068 16.4419 73.2422 16.4288 72.4649C16.4099 71.8494 16.2551 71.3174 15.9645 70.869C16.8387 70.1106 17.4403 69.1685 17.7694 68.0428C17.8774 67.5991 17.9414 67.1549 17.9614 66.7102Z" fill="#BFD4E5"/>
<path d="M10.1354 62.3653C11.3294 61.6305 12.6265 61.4172 14.0268 61.7252C15.3815 62.0454 16.4467 62.8337 17.2226 64.0899C17.6991 64.9402 17.9454 65.8137 17.9614 66.7103C17.9414 67.1549 17.8775 67.5991 17.7694 68.0428C17.4403 69.1685 16.8387 70.1106 15.9645 70.869C15.7738 71.0098 15.5789 71.1475 15.3797 71.2819C14.1569 72 12.8537 72.1906 11.4701 71.8537C10.1032 71.488 9.05236 70.7081 8.31758 69.5141C8.26363 69.4205 8.2248 69.3211 8.20107 69.2159C7.57536 68.0455 7.43193 66.8272 7.77076 65.5611C7.85252 65.1893 7.97811 64.8384 8.14754 64.5085C8.54113 63.6161 9.20375 62.9017 10.1354 62.3653Z" fill="#5393C5"/>
<defs>
<radialGradient id="paint0_radial_2_8294" cx="0" cy="0" r="1" gradientUnits="userSpaceOnUse" gradientTransform="translate(46 39.8) scale(18.1975 13.5875)">
<stop stop-opacity="0.301961"/>
<stop offset="1" stop-opacity="0"/>
</radialGradient>
</defs>
</svg>
