<svg width="60" height="98" viewBox="0 0 60 98" fill="none" xmlns="http://www.w3.org/2000/svg">
<path d="M12.8834 33.8923L9.1834 33.6923C8.7834 33.659 8.41673 33.7923 8.0834 34.0923C7.75006 34.3923 7.56673 34.759 7.5334 35.1923C7.30007 39.8923 5.4334 44.0256 1.9334 47.5923C1.6334 47.8256 1.4834 48.159 1.4834 48.5923C1.45007 49.059 1.56673 49.4423 1.8334 49.7423V49.7923C1.86673 49.759 1.90007 49.7256 1.9334 49.6923C7.10007 45.1923 10.5667 40.2423 12.3334 34.8423C12.4334 34.509 12.6167 34.1923 12.8834 33.8923Z" fill="#454A51"/>
<path d="M23.3334 34.4923L12.8834 33.8923C12.6167 34.1923 12.4334 34.509 12.3334 34.8423C10.5667 40.2423 7.10007 45.1923 1.9334 49.6923C1.90007 49.7257 1.86674 49.759 1.8334 49.7923C2.1334 50.0923 2.48341 50.2757 2.88341 50.3423C13.8834 51.509 21.1834 46.959 24.7834 36.6923C24.8834 36.3257 24.9001 35.9923 24.8334 35.6923C24.7334 35.359 24.5501 35.0923 24.2834 34.8923C23.9834 34.6257 23.6667 34.4923 23.3334 34.4923Z" fill="#3C3E41"/>
<path d="M46.2834 34.8423C46.1834 34.509 46.0001 34.1923 45.7334 33.8923L35.2834 34.4923C34.9501 34.4923 34.6334 34.6257 34.3334 34.8923C34.0667 35.0923 33.8834 35.359 33.7834 35.6923C33.7167 35.9923 33.7334 36.3257 33.8334 36.6923C37.4334 46.959 44.7334 51.509 55.7334 50.3423C56.1334 50.2757 56.4834 50.0923 56.7834 49.7923C56.7501 49.759 56.7167 49.7257 56.6834 49.6923C51.5167 45.1923 48.0501 40.2423 46.2834 34.8423Z" fill="#3C3E41"/>
<path d="M51.0834 35.1923C51.0501 34.759 50.8667 34.3923 50.5334 34.0923C50.2001 33.7923 49.8334 33.659 49.4334 33.6923L45.7334 33.8923C46.0001 34.1923 46.1834 34.509 46.2834 34.8423C48.0501 40.2423 51.5167 45.1923 56.6834 49.6923C56.7167 49.7256 56.7501 49.759 56.7834 49.7923V49.7423C57.0501 49.4423 57.1667 49.059 57.1334 48.5923C57.1334 48.159 56.9834 47.8256 56.6834 47.5923C53.1834 44.0256 51.3167 39.8923 51.0834 35.1923Z" fill="#454A51"/>
<path d="M22.9214 70.5399C24.2884 72.5198 25.3725 74.0283 26.1738 75.0653C26.9752 76.1024 26.9162 77.1748 25.997 78.2826C25.1013 79.3196 23.9581 79.897 22.5675 80.0148C21.1769 80.1326 19.9631 79.7672 18.9261 78.9187C16.6399 77.0095 14.778 74.8411 13.3403 72.4134L21.8255 68.5247C22.1554 69.2789 22.5207 69.9506 22.9214 70.5399Z" fill="#BF7958"/>
<path d="M20.058 61.2416C20.2465 62.6087 20.4704 63.8697 20.7296 65.0246L11.5728 68.7365C11.0307 67.3459 10.5947 65.8727 10.2648 64.3172C9.60495 61.206 9.39294 57.7884 9.62876 54.0644C9.72308 52.6502 10.2888 51.4718 11.3259 50.529C12.3865 49.5627 13.6004 49.1267 14.9674 49.221C16.358 49.1975 17.5247 49.7043 18.4674 50.7414C19.3866 51.7549 19.7872 52.957 19.6693 54.3476C19.5279 56.8459 19.6574 59.144 20.058 61.2416Z" fill="#3DBF7B"/>
<path d="M13.3403 72.4133L12.2797 72.8376L10.2646 69.2667L11.5728 68.7364L20.7296 65.0245L21.6135 64.6357L23.0983 67.959L21.8255 68.5246L13.3403 72.4133Z" fill="#25A863"/>
<path d="M37.6954 70.5399C36.3284 72.5198 35.2443 74.0283 34.4429 75.0653C33.6416 76.1024 33.7006 77.1748 34.6198 78.2826C35.5155 79.3196 36.6586 79.897 38.0492 80.0148C39.4398 80.1326 40.6536 79.7672 41.6907 78.9187C43.9768 77.0095 45.8388 74.8411 47.2764 72.4134L38.7913 68.5247C38.4613 69.2789 38.096 69.9506 37.6954 70.5399Z" fill="#BF7958"/>
<path d="M40.5587 61.2416C40.3702 62.6087 40.1464 63.8697 39.8871 65.0246L49.044 68.7365C49.5861 67.3459 50.022 65.8727 50.352 64.3172C51.0118 61.206 51.2238 57.7884 50.988 54.0644C50.8937 52.6502 50.328 51.4718 49.2909 50.529C48.2302 49.5627 47.0164 49.1267 45.6494 49.221C44.2588 49.1975 43.0921 49.7043 42.1493 50.7414C41.2302 51.7549 40.8295 52.957 40.9474 54.3476C41.0889 56.8459 40.9594 59.144 40.5587 61.2416Z" fill="#3DBF7B"/>
<path d="M47.2764 72.4133L48.3371 72.8376L50.3521 69.2667L49.044 68.7364L39.8871 65.0245L39.0033 64.6357L37.5185 67.959L38.7913 68.5246L47.2764 72.4133Z" fill="#25A863"/>
<path d="M49.4334 97.4924L49.5334 94.4924H34.5834V97.4924H49.4334Z" fill="white"/>
<path d="M49.5334 94.4924C46.3 93.5924 44.3834 91.5924 43.7834 88.4924H34.5834V94.4924H49.5334Z" fill="#BFD4E5"/>
<path d="M43.7834 88.4924H43.8334L43.9834 83.4924H34.5834V88.4924H43.7834Z" fill="#BF7958"/>
<path d="M44.4334 74.2924C44.4334 72.6924 43.8001 71.3258 42.5334 70.1924C41.3001 69.0591 39.7834 68.4924 37.9834 68.4924C36.2167 68.4924 34.7001 69.0591 33.4334 70.1924C32.1667 71.3258 31.5334 72.6924 31.5334 74.2924C33.5001 75.8924 34.5167 78.9591 34.5834 83.4924H43.9834L44.4334 74.2924Z" fill="#676AC6"/>
<path d="M11.6334 97.4924L11.5334 94.4924H26.4834V97.4924H11.6334Z" fill="white"/>
<path d="M11.5334 94.4924C14.7667 93.5924 16.6834 91.5924 17.2834 88.4924H26.4834V94.4924H11.5334Z" fill="#BFD4E5"/>
<path d="M17.2834 88.4924H17.2334L17.0834 83.4924H26.4834V88.4924H17.2834Z" fill="#BF7958"/>
<path d="M16.6334 74.2924C16.6334 72.6924 17.2667 71.3258 18.5334 70.1924C19.7667 69.0591 21.2834 68.4924 23.0834 68.4924C24.8501 68.4924 26.3667 69.0591 27.6334 70.1924C28.9001 71.3258 29.5334 72.6924 29.5334 74.2924C27.5667 75.8924 26.5501 78.9591 26.4834 83.4924H17.0834L16.6334 74.2924Z" fill="#676AC6"/>
<path d="M16.7834 75.0424C16.7501 76.4758 16.9501 77.9924 17.3834 79.5924H42.6834C43.1167 77.9924 43.3168 76.4758 43.2834 75.0424H16.7834Z" fill="#676AC6"/>
<path d="M16.6334 70.0924H19.5834C20.0834 67.2591 18.5667 64.5924 15.0334 62.0924L15.2334 62.8924C15.9334 65.1258 16.4001 67.5258 16.6334 70.0924ZM44.8334 62.8924L45.0334 62.0924C41.5001 64.5924 40.0001 67.2591 40.5334 70.0924H43.4834C43.7167 67.5258 44.1667 65.1258 44.8334 62.8924ZM39.9834 62.4924C39.9834 61.9258 39.0334 61.4258 37.1334 60.9924C35.1667 60.6591 32.8001 60.4924 30.0334 60.4924C27.2667 60.4924 24.9001 60.6591 22.9334 60.9924C21.0334 61.4258 20.0834 61.9258 20.0834 62.4924C20.0834 63.0591 21.0334 63.5091 22.9334 63.8424C24.9001 64.2758 27.2667 64.4924 30.0334 64.4924C32.8001 64.4924 35.1667 64.2758 37.1334 63.8424C39.0334 63.5091 39.9834 63.0591 39.9834 62.4924Z" fill="#25A863"/>
<path d="M44.6334 70.0924H43.4834H40.5334H19.5834H16.6334H15.4834L16.2334 75.0424H16.7834H43.2834H43.8834L44.6334 70.0924Z" fill="#3C3E41"/>
<path d="M48.2834 55.7424C48.9501 52.3758 48.2501 50.6258 46.1834 50.4924C46.0167 50.4924 45.8501 50.4924 45.6834 50.4924H14.3834C11.9501 50.3591 11.0834 52.1091 11.7834 55.7424C13.2501 57.8424 14.4001 60.2258 15.2334 62.8924L15.0334 62.0924C18.5667 64.5924 20.0834 67.2591 19.5834 70.0924H40.5334C40.0001 67.2591 41.5001 64.5924 45.0334 62.0924L44.8334 62.8924C45.6667 60.2258 46.8167 57.8424 48.2834 55.7424ZM37.1334 60.9924C39.0334 61.4258 39.9834 61.9258 39.9834 62.4924C39.9834 63.0591 39.0334 63.5091 37.1334 63.8424C35.1667 64.2758 32.8001 64.4924 30.0334 64.4924C27.2667 64.4924 24.9001 64.2758 22.9334 63.8424C21.0334 63.5091 20.0834 63.0591 20.0834 62.4924C20.0834 61.9258 21.0334 61.4258 22.9334 60.9924C24.9001 60.6591 27.2667 60.4924 30.0334 60.4924C32.8001 60.4924 35.1667 60.6591 37.1334 60.9924Z" fill="#3DBF7B"/>
<path d="M40.5834 50.3424C40.3834 52.4757 39.3834 54.3091 37.5834 55.8424C35.4834 57.6091 32.9667 58.4924 30.0334 58.4924C27.1001 58.4924 24.5834 57.6091 22.4834 55.8424C20.6834 54.3424 19.7001 52.5424 19.5334 50.4424C19.1667 51.2757 18.9834 52.1424 18.9834 53.0424C18.9834 53.2091 19.0001 53.3757 19.0334 53.5424C19.1334 55.6091 20.1834 57.3591 22.1834 58.7924C24.3501 60.4257 26.9667 61.2424 30.0334 61.2424C33.1001 61.2424 35.7334 60.4257 37.9334 58.7924C39.9334 57.3591 40.9834 55.6091 41.0834 53.5424C41.1167 53.3757 41.1334 53.2091 41.1334 53.0424C41.1334 52.1091 40.9501 51.2091 40.5834 50.3424Z" fill="white"/>
<path d="M40.6334 49.5424C40.6334 47.0757 39.6167 44.9424 37.5834 43.1424C35.4834 41.4424 32.9667 40.5924 30.0334 40.5924C27.1001 40.5924 24.5834 41.4424 22.4834 43.1424C20.4501 44.9424 19.4334 47.0757 19.4334 49.5424C19.4334 49.7091 19.4501 49.8757 19.4834 50.0424C19.4834 50.1757 19.5001 50.3091 19.5334 50.4424C19.7001 52.5424 20.6834 54.3424 22.4834 55.8424C24.5834 57.6091 27.1001 58.4924 30.0334 58.4924C32.9667 58.4924 35.4834 57.6091 37.5834 55.8424C39.3834 54.3091 40.3834 52.4757 40.5834 50.3424C40.5834 50.2424 40.5834 50.1424 40.5834 50.0424C40.6167 49.8757 40.6334 49.7091 40.6334 49.5424Z" fill="#BF7958"/>
<path d="M45.1782 42.0924C41.259 39.4924 36.5107 38.1924 30.9334 38.1924C25.3561 38.1924 20.5576 39.4924 16.5379 42.0924C12.6187 44.759 10.6591 47.9424 10.6591 51.6424C10.6591 55.3424 12.6187 58.4924 16.5379 61.0924C20.5576 63.759 25.3561 65.0924 30.9334 65.0924C36.5107 65.0924 41.259 63.759 45.1782 61.0924C49.1979 58.4924 51.2077 55.3424 51.2077 51.6424C51.2077 47.9424 49.1979 44.759 45.1782 42.0924Z" fill="url(#paint0_radial_2_4721)"/>
<path d="M52.7499 23.6114C51.9487 18.8646 49.1815 14.9498 44.4486 11.867C39.287 8.48864 33.3036 7.10987 26.4985 7.73068C19.6935 8.35149 14.0584 10.7902 9.5933 15.0468C5.52947 18.9321 3.53302 23.2814 3.60396 28.0949C4.46273 33.4724 7.26169 37.9199 12.0008 41.4372C17.2079 45.3135 23.2139 46.9413 30.019 46.3204C36.8241 45.6996 42.4365 43.012 46.8561 38.2574C50.9138 33.9376 52.8784 29.0556 52.7499 23.6114Z" fill="#3C3E41"/>
<path d="M52.6679 22.1629C52.1168 16.1213 49.2377 11.1623 44.0306 7.28603C38.8297 3.47612 32.8266 1.88157 26.0216 2.50238C19.2165 3.1232 13.6011 5.77767 9.17538 10.4658C4.78891 15.2173 2.87126 20.6138 3.42242 26.6554C3.46785 27.1534 3.52836 27.6332 3.60395 28.0949C3.53302 23.2814 5.52946 18.9321 9.59329 15.0468C14.0584 10.7902 19.6935 8.35149 26.4985 7.73067C33.3036 7.10986 39.287 8.48864 44.4486 11.867C49.1815 14.9498 51.9486 18.8646 52.7499 23.6114C52.7407 23.1436 52.7134 22.6608 52.6679 22.1629Z" fill="#454A51"/>
<path d="M2.87749 35.5417C3.07736 37.7326 4.02856 39.5369 5.73108 40.9548C7.43966 42.439 9.3894 43.0812 11.5803 42.8814C13.738 42.6845 15.5394 41.7001 16.9844 39.9282C18.4022 38.2257 19.0112 36.2789 18.8113 34.088C18.6054 31.8307 17.6512 29.9932 15.9487 28.5753C14.2099 27.1273 12.2617 26.5017 10.104 26.6985C7.91307 26.8984 6.11021 27.8662 4.69538 29.6019C3.27752 31.3045 2.67156 33.2844 2.87749 35.5417ZM6.06426 35.2509C5.94615 33.9563 6.30489 32.7521 7.14049 31.6382C7.98517 30.6239 9.07142 30.0562 10.3992 29.9351C11.7603 29.8109 12.9313 30.1727 13.9124 31.0204C14.9357 31.9647 15.5065 33.0841 15.6246 34.3788C15.7457 35.7066 15.3839 36.8776 14.5392 37.8919C13.7308 38.9363 12.646 39.5206 11.285 39.6448C9.95721 39.7659 8.78466 39.3876 7.76736 38.5097C6.75309 37.665 6.18539 36.5788 6.06426 35.2509ZM46.951 23.3371C44.7601 23.5369 42.9572 24.5047 41.5424 26.2404C40.1245 27.943 39.5186 29.9229 39.7245 32.1802C39.9244 34.3711 40.8756 36.1755 42.5781 37.5933C44.2867 39.0776 46.2364 39.7197 48.4273 39.5199C50.585 39.323 52.3864 38.3386 53.8314 36.5667C55.2492 34.8642 55.8582 32.9175 55.6583 30.7266C55.4524 28.4693 54.4982 26.6317 52.7957 25.2138C51.0569 23.7658 49.1087 23.1402 46.951 23.3371ZM48.132 36.2833C46.8042 36.4044 45.6317 36.0261 44.6144 35.1482C43.6001 34.3035 43.0324 33.2173 42.9113 31.8894C42.7932 30.5948 43.1519 29.3906 43.9875 28.2767C44.8322 27.2625 45.9184 26.6948 47.2462 26.5736C48.5741 26.4525 49.7451 26.8143 50.7594 27.6589C51.7827 28.6032 52.3535 29.7227 52.4716 31.0173C52.5927 32.3451 52.2309 33.5161 51.3862 34.5304C50.5446 35.5779 49.4599 36.1622 48.132 36.2833Z" fill="#BF7958"/>
<path d="M7.14048 31.6382C6.30489 32.7521 5.94614 33.9563 6.06425 35.251C6.18538 36.5788 6.75308 37.665 7.76735 38.5097C8.78465 39.3876 9.95721 39.7659 11.285 39.6448C12.646 39.5207 13.7308 38.9364 14.5392 37.8919C15.3839 36.8776 15.7457 35.7066 15.6246 34.3788C15.5064 33.0842 14.9357 31.9647 13.9124 31.0205C12.9313 30.1727 11.7602 29.811 10.3992 29.9351C9.07141 30.0563 7.98516 30.624 7.14048 31.6382ZM44.6144 35.1482C45.6317 36.0261 46.8042 36.4045 48.132 36.2833C49.4598 36.1622 50.5446 35.5779 51.3862 34.5304C52.2309 33.5162 52.5927 32.3451 52.4716 31.0173C52.3534 29.7227 51.7827 28.6032 50.7594 27.659C49.7451 26.8143 48.5741 26.4525 47.2462 26.5737C45.9184 26.6948 44.8322 27.2625 43.9875 28.2768C43.1519 29.3906 42.7931 30.5948 42.9112 31.8895C43.0324 33.2173 43.6001 34.3035 44.6144 35.1482Z" fill="#A8603F"/>
<path d="M48.4769 38.9631L48.7187 16.2974L7.04175 20.0995L11.3809 42.3473C13.1901 47.1361 16.9544 50.2402 22.6737 51.6598C25.5499 52.3681 28.3128 52.5679 30.9624 52.2593C33.6573 52.0804 36.3385 51.3839 39.0059 50.1699C44.4071 47.7358 47.5641 44.0002 48.4769 38.9631Z" fill="#BF7958"/>
<path d="M32.1851 39.2443C32.8398 38.716 33.1399 38.1531 33.0854 37.5556C33.0309 36.958 32.6323 36.4421 31.8898 36.0078C31.1865 35.6368 30.3536 35.4952 29.3909 35.583C28.4946 35.6648 27.7342 35.9517 27.1097 36.4439C26.4912 37.0024 26.2092 37.5804 26.2637 38.1779C26.3182 38.7754 26.6986 39.2762 27.4049 39.6804C28.1143 40.1178 28.9171 40.2956 29.8134 40.2138C30.776 40.126 31.5666 39.8028 32.1851 39.2443Z" fill="#955435"/>
<path d="M16.9017 36.2706C16.8896 36.1378 16.879 36.0216 16.8699 35.922C16.7639 34.7602 17.0548 33.7295 17.7426 32.83C18.3127 32.1085 19.0384 31.6239 19.9195 31.3762L14.1933 31.8986C15.6874 32.8668 16.5902 34.3242 16.9017 36.2706ZM23.7195 37.8075C24.1237 37.1012 24.2804 36.2501 24.1895 35.2543C24.1017 34.2916 23.7936 33.4829 23.2653 32.8282C22.7369 32.1735 22.1242 31.8779 21.4271 31.9415C20.7632 32.0021 20.2473 32.4006 19.8793 33.1371C19.4782 33.8766 19.3215 34.7277 19.4094 35.6904C19.5002 36.6862 19.8083 37.4949 20.3336 38.1164C20.8287 38.7742 21.4083 39.0727 22.0722 39.0122C22.7693 38.9486 23.3184 38.547 23.7195 37.8075ZM41.9159 33.6371C41.925 33.7367 41.9356 33.8529 41.9477 33.9857C41.9018 32.015 42.5094 30.4199 43.7705 29.2003L38.0941 29.7181C39.0055 29.8024 39.8068 30.1476 40.4981 30.754C41.3373 31.5142 41.8099 32.4753 41.9159 33.6371ZM34.5963 34.3049C34.6871 35.3007 34.9952 36.1094 35.5205 36.731C36.0157 37.3887 36.6118 37.6858 37.3089 37.6222C37.9728 37.5616 38.5053 37.1616 38.9065 36.4221C39.3106 35.7158 39.4673 34.8647 39.3764 33.8688C39.2886 32.9061 38.9806 32.0974 38.4522 31.4427C37.9239 30.788 37.3278 30.491 36.6639 30.5515C35.9667 30.6151 35.4342 31.0152 35.0663 31.7516C34.6651 32.4911 34.5085 33.3422 34.5963 34.3049Z" fill="#3C3E41"/>
<path d="M20.3133 31.29C20.1805 31.3021 20.0493 31.3308 19.9195 31.3761C19.0384 31.6239 18.3127 32.1085 17.7426 32.8299C17.0548 33.7295 16.7639 34.7601 16.8699 35.922C16.879 36.0216 16.8896 36.1378 16.9017 36.2705C17.0589 37.2604 17.5209 38.1052 18.2877 38.8051C19.1631 39.5955 20.1818 39.9377 21.3436 39.8317C22.4723 39.7288 23.379 39.2109 24.0637 38.2782C24.7847 37.3756 25.0922 36.3434 24.9862 35.1816C24.8802 34.0197 24.391 33.0602 23.5186 32.303C22.6764 31.5096 21.6909 31.1643 20.5623 31.2673C20.4627 31.2764 20.3797 31.2839 20.3133 31.29ZM24.1895 35.2542C24.2804 36.2501 24.1237 37.1012 23.7195 37.8075C23.3184 38.547 22.7693 38.9485 22.0722 39.0121C21.4083 39.0727 20.8287 38.7741 20.3336 38.1164C19.8083 37.4949 19.5002 36.6862 19.4094 35.6903C19.3215 34.7277 19.4782 33.8766 19.8793 33.1371C20.2473 32.4006 20.7632 32.0021 21.4271 31.9415C22.1242 31.8779 22.7369 32.1735 23.2653 32.8282C23.7936 33.4829 24.1017 34.2916 24.1895 35.2542ZM38.0941 29.7181C37.9582 29.697 37.824 29.6925 37.6912 29.7046C37.5916 29.7137 37.492 29.7228 37.3924 29.7319C36.2638 29.8349 35.3737 30.3512 34.7221 31.2809C34.0011 32.1835 33.6936 33.2157 33.7996 34.3775C33.9056 35.5394 34.3948 36.4989 35.2672 37.2561C36.0762 38.0526 37.0451 38.3993 38.1737 38.2963C39.3688 38.1873 40.3253 37.6649 41.0432 36.7292C41.6707 35.9021 41.9722 34.9876 41.9477 33.9856C41.9356 33.8529 41.925 33.7367 41.9159 33.6371C41.8099 32.4752 41.3373 31.5142 40.4981 30.754C39.8068 30.1476 39.0055 29.8023 38.0941 29.7181ZM35.5205 36.7309C34.9952 36.1094 34.6872 35.3007 34.5963 34.3048C34.5085 33.3422 34.6651 32.4911 35.0663 31.7516C35.4342 31.0151 35.9668 30.6151 36.6639 30.5515C37.3278 30.4909 37.9239 30.788 38.4522 31.4427C38.9806 32.0974 39.2886 32.9061 39.3765 33.8688C39.4673 34.8646 39.3106 35.7157 38.9065 36.422C38.5053 37.1615 37.9728 37.5616 37.3089 37.6221C36.6118 37.6857 36.0157 37.3886 35.5205 36.7309Z" fill="white"/>
<path d="M30.1038 42.296C29.1079 42.3869 28.3083 42.7946 27.7049 43.519C27.1046 44.2767 26.8484 45.1369 26.9362 46.0995C27.0271 47.0954 27.4347 47.895 28.1592 48.4984C28.8837 49.1017 29.7438 49.3579 30.7397 49.2671C31.7024 49.1793 32.4854 48.7731 33.0887 48.0486C33.7253 47.3211 33.9981 46.4594 33.9073 45.4636C33.8194 44.5009 33.3952 43.7028 32.6345 43.0693C31.91 42.466 31.0664 42.2082 30.1038 42.296Z" fill="#A8603F"/>
<path d="M49.1469 24.8438L49.3796 16.3877L48.8319 16.4377L48.7547 15.5912L6.23126 19.4705L7.57358 27.0298C14.6985 26.246 19.8524 24.4034 23.0353 21.5023C26.8783 25.4695 30.7463 27.3258 34.6393 27.0711L35.8016 23.8521C40.4344 25.1031 44.8829 25.4337 49.1469 24.8438Z" fill="#3C3E41"/>
<path d="M45.3642 15.8503C44.7665 15.1684 44.0374 14.5153 43.1772 13.8909C39.2078 11.1066 33.887 10.0189 27.2147 10.6276C20.5424 11.2363 15.5213 13.2508 12.1514 16.6711C11.901 16.8613 11.7034 17.0801 11.5586 17.3276C11.0367 17.8439 10.6204 18.4174 10.3098 19.0482C9.95988 19.6157 9.96914 20.2675 10.3376 21.0038C14.3957 18.1567 20.1758 16.3909 27.678 15.7065C35.1138 15.0281 41.0999 15.7037 45.6364 17.7333C45.8686 16.9758 45.7778 16.3481 45.3642 15.8503Z" fill="#71A2BE"/>
<path d="M13.1119 33.2524C13.4617 32.6849 13.5717 32.0557 13.4417 31.3646L12.2811 25.7971L7.35156 26.2468L8.66628 32.4028C8.79324 33.0606 9.16008 33.5962 9.7668 34.0094C10.3343 34.3593 10.9454 34.4542 11.6002 34.2941L11.65 34.2895C12.3079 34.1626 12.7952 33.8169 13.1119 33.2524Z" fill="#3C3E41"/>
<path d="M44.2637 28.5528C44.2609 29.2559 44.4829 29.8549 44.9297 30.3497C45.3765 30.8445 45.9349 31.0948 46.6049 31.1006L46.6547 31.0961C47.3277 31.1351 47.9116 30.9312 48.4064 30.4844C48.9283 29.9682 49.1922 29.3751 49.198 28.7051L49.3771 22.4128L44.3977 22.8671L44.2637 28.5528Z" fill="#3C3E41"/>
<path d="M13.766 26.1135L13.9885 28.5533L23.1636 26.2101L22.9774 24.1686L13.766 26.1135ZM42.928 27.6705L42.7054 25.2306L33.344 24.9801L33.5302 27.0216L42.928 27.6705Z" fill="#3C3E41"/>
<path d="M49.8427 34.6712C49.6195 35.1602 49.5955 35.631 49.7707 36.0836L51.1163 39.8268C51.2915 40.2795 51.607 40.6189 52.0628 40.8451C52.5155 41.0381 52.9848 41.0455 53.4706 40.8673L53.5204 40.8627C53.973 40.6875 54.3124 40.3721 54.5386 39.9163C54.7618 39.4273 54.7843 38.9399 54.6061 38.4541L53.265 34.7607C53.0898 34.3081 52.7577 33.9702 52.2687 33.747C51.7828 33.557 51.3301 33.5481 50.9107 33.7203L50.8609 33.7248C50.3751 33.903 50.0357 34.2185 49.8427 34.6712Z" fill="#EEA160"/>
<path d="M9.36076 38.3643C9.08903 37.954 8.69813 37.7051 8.18809 37.6178L8.13829 37.6223C7.66144 37.5319 7.20125 37.6241 6.75771 37.8989C6.3172 38.2068 6.05175 38.5992 5.96137 39.0761L5.36053 42.9467C5.27317 43.4567 5.38348 43.932 5.69144 44.3725C5.99637 44.7798 6.37066 45.0302 6.81432 45.1236L6.86411 45.1191C7.37416 45.2064 7.83435 45.1142 8.2447 44.8425C8.68521 44.5345 8.95065 44.1421 9.04104 43.6653L9.68713 39.7403C9.77751 39.2635 9.66872 38.8048 9.36076 38.3643Z" fill="#EEA160"/>
<defs>
<radialGradient id="paint0_radial_2_4721" cx="0" cy="0" r="1" gradientUnits="userSpaceOnUse" gradientTransform="translate(30.9334 51.6424) scale(20.4816 13.5875)">
<stop stop-opacity="0.301961"/>
<stop offset="1" stop-opacity="0"/>
</radialGradient>
</defs>
</svg>
